<?xml version="1.0" encoding="utf-8"?>
<!-- Generator: Adobe Illustrator 27.2.0, SVG Export Plug-In . SVG Version: 6.00 Build 0)  -->
<svg version="1.1" id="Bold" xmlns="http://www.w3.org/2000/svg" xmlns:xlink="http://www.w3.org/1999/xlink" x="0px" y="0px"
	 viewBox="0 0 512 512" style="enable-background:new 0 0 512 512;" xml:space="preserve">
<style type="text/css">
	.st0{fill:#FFFFFF;}
	.st1{fill:#26C6DA;}
</style>
<path class="st0" d="M416,512H96c-53,0-96-43-96-96V96C0,43,43,0,96,0h320c53,0,96,43,96,96v320C512,469,469,512,416,512z"/>
<path class="st1" d="M256,90.7c-95.3,0-172.5,75.9-172.5,169.5c0,74.9,49.5,138.4,117.9,160.8c8.6,1.6,11.9-3.6,11.9-8.1
	c0-4-0.1-14.7-0.3-28.8c-48,10.2-58.1-22.8-58.1-22.8c-7.8-19.5-19.1-24.8-19.1-24.8c-15.6-10.5,1.2-10.2,1.2-10.2
	c17.2,1.2,26.4,17.5,26.4,17.5c15.4,25.9,40.4,18.5,50.3,14.2c1.6-10.9,5.9-18.5,10.9-22.6c-38.3-4.3-78.6-18.9-78.6-83.8
	c0-18.5,6.7-33.6,17.8-45.4c-1.9-4.3-7.8-21.6,1.5-44.9c0,0,14.4-4.6,47.4,17.4c13.7-3.8,28.4-5.7,43.1-5.7
	c14.7,0.1,29.4,1.9,43.1,5.7c32.7-22,47.2-17.4,47.2-17.4c9.3,23.3,3.5,40.6,1.8,44.9c11.1,11.9,17.7,27,17.7,45.4
	c0,65.1-40.3,79.5-78.7,83.6c6.1,5.1,11.6,15.5,11.6,31.4c0,22.6-0.3,41-0.3,46.4c0,4.4,3,9.7,11.9,8.1
	c69-22.2,118.5-85.7,118.5-160.5C428.5,166.6,351.3,90.7,256,90.7L256,90.7z"/>
</svg>
