<?xml version="1.0" encoding="utf-8"?>
<!-- Generator: Adobe Illustrator 27.2.0, SVG Export Plug-In . SVG Version: 6.00 Build 0)  -->
<svg version="1.1" id="Layer_1" xmlns="http://www.w3.org/2000/svg" xmlns:xlink="http://www.w3.org/1999/xlink" x="0px" y="0px"
	 viewBox="0 0 161 161" style="enable-background:new 0 0 161 161;" xml:space="preserve">
<style type="text/css">
	.st0{fill-rule:evenodd;clip-rule:evenodd;fill:#E24329;}
	.st1{fill-rule:evenodd;clip-rule:evenodd;fill:#FC6D26;}
	.st2{fill-rule:evenodd;clip-rule:evenodd;fill:#FCA326;}
</style>
<g>
	<path class="st0" d="M80.5,134.4L102,68.1H59L80.5,134.4z"/>
	<path class="st1" d="M80.5,134.4L59,68.1H28.8L80.5,134.4z"/>
	<path class="st2" d="M28.8,68.1l-6.5,20.2c-0.6,1.8,0.1,3.9,1.6,5l56.7,41.2L28.8,68.1z"/>
	<path class="st0" d="M28.8,68.1H59L46,28.2c-0.7-2.1-3.6-2.1-4.2,0L28.8,68.1z"/>
	<path class="st1" d="M80.5,134.4L102,68.1h30.2L80.5,134.4z"/>
	<path class="st2" d="M132.2,68.1l6.5,20.1c0.6,1.8-0.1,3.9-1.6,5l-56.7,41.2L132.2,68.1z"/>
	<path class="st0" d="M132.2,68.1H102l13-39.9c0.7-2.1,3.6-2.1,4.2,0L132.2,68.1z"/>
</g>
</svg>
