<?xml version="1.0" encoding="utf-8"?>
<!-- Generator: Adobe Illustrator 27.2.0, SVG Export Plug-In . SVG Version: 6.00 Build 0)  -->
<svg version="1.1" id="Layer_1" xmlns="http://www.w3.org/2000/svg" xmlns:xlink="http://www.w3.org/1999/xlink" x="0px" y="0px"
	 viewBox="0 0 1000 1000" style="enable-background:new 0 0 1000 1000;" xml:space="preserve">
<style type="text/css">
	.st0{fill:#FFFFFF;}
	.st1{fill:#D54C3F;}
	.st2{fill:#EAEAEA;}
	.st3{fill:#E3E3E3;}
	.st4{opacity:0.1;enable-background:new    ;}
	.st5{fill:#EFEFEF;}
	.st6{fill:#DE5145;}
</style>
<path class="st0" d="M150,0h700c82.8,0,150,67.2,150,150v700c0,82.8-67.2,150-150,150H150C67.2,1000,0,932.8,0,850V150
	C0,67.2,67.2,0,150,0z"/>
<path class="st1" d="M197.5,239.5h604.3c27.3,0,49.4,22.1,49.4,49.4v422.7c0,27.3-22.1,49.4-49.4,49.4H197.5
	c-27.3,0-49.4-22.1-49.4-49.4V288.9C148,261.5,170.1,239.5,197.5,239.5z"/>
<path class="st2" d="M243.2,241.8h535.9v519.1H243.2V241.8z"/>
<path class="st3" d="M455.9,595.5L243.2,760.9V385L455.9,595.5"/>
<path class="st4" d="M619.7,760.9L180.1,321.5l601-14.3l-1.8,453.9L619.7,760.9z"/>
<path class="st5" d="M192.2,239.6L509.4,474l291.8-234.4H192.2z"/>
<path class="st6" d="M833.4,318.2c19.7-13.7,24.4-40.8,10.7-60.5c-13.7-19.7-40.8-24.4-60.5-10.7L504.1,450.2v0.2l0,0L224.6,246.9
	c-19.9-13.5-47.3-8.6-60.9,11.1c-13.7,19.7-8.8,46.7,11.1,60.2l-1.2-0.8L504.1,558 M834.6,317.4l-332,242.2"/>
</svg>
