<?xml version="1.0" encoding="utf-8"?>
<!-- Generator: Adobe Illustrator 27.2.0, SVG Export Plug-In . SVG Version: 6.00 Build 0)  -->
<svg version="1.1" id="Bold" xmlns="http://www.w3.org/2000/svg" xmlns:xlink="http://www.w3.org/1999/xlink" x="0px" y="0px"
	 viewBox="0 0 512 512" style="enable-background:new 0 0 512 512;" xml:space="preserve">
<style type="text/css">
	.st0{fill:#FFFFFF;}
	.st1{fill:#FD907E;}
	.st2{fill:#FC573B;}
</style>
<path class="st0" d="M416,512H96c-53,0-96-43-96-96V96C0,43,43,0,96,0h320c53,0,96,43,96,96v320C512,469,469,512,416,512z"/>
<path class="st1" d="M256,190.3c-36.3,0-65.7,29.4-65.7,65.7c0,36.3,29.4,65.7,65.7,65.7c36.3,0,65.7-29.4,65.7-65.7
	C321.7,219.6,292.3,190.3,256,190.3z M256,298.6c-23.6,0-42.6-19.1-42.6-42.6s19.1-42.6,42.6-42.6s42.6,19.1,42.6,42.6
	C298.7,279.5,279.6,298.6,256,298.6L256,298.6z"/>
<path class="st2" d="M308.8,128.8c-23.6-1.1-81.9-1.1-105.5,0c-20.7,1-39,6-53.7,20.7c-24.6,24.6-21.5,57.8-21.5,106.4
	c0,49.8-2.8,82.2,21.5,106.4c24.7,24.7,58.4,21.5,106.4,21.5c58.9,0,123.4,5.6,127.2-75.2c1.1-23.6,1.1-81.9,0-105.5
	C381.1,158.3,357,131,308.8,128.8L308.8,128.8z M346,346.1c-16.1,16.1-38.5,14.7-90.3,14.7c-53.3,0-74.7,0.8-90.3-14.9
	c-18-17.9-14.7-46.6-14.7-90.2c0-106.4,6.1-105,104.9-105l0.5,0.3c106,0,104.9,6.9,104.9,104.9C360.9,308.7,361.9,330.2,346,346.1z"
	/>
<circle class="st1" cx="324.3" cy="187.7" r="15.3"/>
</svg>
