<?xml version="1.0" encoding="utf-8"?>
<!-- Generator: Adobe Illustrator 27.2.0, SVG Export Plug-In . SVG Version: 6.00 Build 0)  -->
<svg version="1.1" id="Bold" xmlns="http://www.w3.org/2000/svg" xmlns:xlink="http://www.w3.org/1999/xlink" x="0px" y="0px"
	 viewBox="0 0 512 512" style="enable-background:new 0 0 512 512;" xml:space="preserve">
<style type="text/css">
	.st0{fill:#FFFFFF;}
	.st1{fill:#26C6DA;}
</style>
<path class="st0" d="M416,512H96c-53,0-96-43-96-96V96C0,43,43,0,96,0h320c53,0,96,43,96,96v320C512,469,469,512,416,512z"/>
<path class="st1" d="M256,426.6c94.2,0,170.6-76.4,170.6-170.6S350.2,85.4,256,85.4S85.4,161.8,85.4,256S161.8,426.6,256,426.6z
	 M163.5,252.3L328,188.8c7.6-2.8,14.3,1.9,11.9,13.5l0,0l-28,132c-2.1,9.3-7.6,11.6-15.5,7.2L253.7,310l-20.5,19.9
	c-2.3,2.3-4.3,4.3-8.5,4.3l3.1-43.5l79-71.4c3.5-3.1-0.8-4.8-5.3-1.7l-97.7,61.4l-42.1-13.2C152.4,262.9,152.2,256.7,163.5,252.3
	L163.5,252.3z"/>
</svg>
